<?xml version="1.0" encoding="UTF-8" standalone="no"?>
<svg
   xmlns:dc="http://purl.org/dc/elements/1.1/"
   xmlns:cc="http://creativecommons.org/ns#"
   xmlns:rdf="http://www.w3.org/1999/02/22-rdf-syntax-ns#"
   xmlns:svg="http://www.w3.org/2000/svg"
   xmlns="http://www.w3.org/2000/svg"
   id="svg3998"
   version="1.1"
   viewBox="0 0 23.896007 18.852122"
   height="18.852121mm"
   width="23.896008mm">
  <defs
     id="defs3992">
    <filter
       id="filter1778"
       style="color-interpolation-filters:sRGB">
      <feComposite
         id="feComposite1764"
         result="composite1"
         k2="1"
         k1="0"
         operator="arithmetic"
         in2="SourceGraphic"
         k3="0"
         k4="0" />
      <feColorMatrix
         id="feColorMatrix1766"
         result="colormatrix1"
         type="saturate"
         values="1"
         in="composite1" />
      <feFlood
         id="feFlood1768"
         result="flood1"
         flood-color="rgb(23,11,40)"
         flood-opacity="1" />
      <feBlend
         id="feBlend1770"
         result="blend1"
         mode="multiply"
         in2="colormatrix1"
         in="flood1" />
      <feBlend
         id="feBlend1772"
         result="blend2"
         mode="screen"
         in2="blend1" />
      <feColorMatrix
         id="feColorMatrix1774"
         result="colormatrix2"
         type="saturate"
         values="1"
         in="blend2" />
      <feComposite
         id="feComposite1776"
         result="composite2"
         operator="in"
         in2="SourceGraphic"
         in="colormatrix2" />
    </filter>
  </defs>
  <metadata
     id="metadata3995">
    <rdf:RDF>
      <cc:Work
         rdf:about="">
        <dc:format>image/svg+xml</dc:format>
        <dc:type
           rdf:resource="http://purl.org/dc/dcmitype/StillImage" />
        <dc:title></dc:title>
      </cc:Work>
    </rdf:RDF>
  </metadata>
  <g
     transform="translate(2.931881,-189.34887)"
     id="layer1">
    <path
       style="fill:#35195c;fill-opacity:1;stroke-width:0.07582196"
       d="m 19.626963,189.83909 c 0.17074,0.1554 0.3344,0.34647 0.48463,0.57062 0.14254,0.21258 0.29063,0.50646 0.32909,0.65297 0.0641,0.24423 0.0609,0.25262 -0.0372,0.10139 -0.0589,-0.0907 -0.14888,-0.27211 -0.20002,-0.403 -0.15855,-0.40561 -0.77535,-0.96579 -1.2718,-1.15517 -0.64549,-0.24622 -0.69263,-0.21722 -0.69832,0.42999 -0.007,0.79366 -0.13271,1.37239 -0.61911,2.8503 -0.23659,0.71888 -0.73943,2.30961 -1.1175,3.53496 -0.37805,1.22534 -0.79817,2.55972 -0.93361,2.96528 -0.13548,0.40558 -0.45927,1.44088 -0.71958,2.30067 -0.26033,0.8598 -0.52957,1.71858 -0.59828,1.90848 -0.0687,0.1899 -0.36072,1.15876 -0.64903,2.15302 -0.28831,0.99427 -0.56711,1.83005 -0.61959,1.85731 -0.19288,0.10018 -0.47341,-0.27079 -0.59043,-0.78078 -0.062,-0.2703 -0.17568,-0.65105 -0.25255,-0.84599 -0.18477,-0.46862 -0.23785,-1.49411 -0.12209,-2.35699 0.10088,-0.75213 0.77141,-3.22011 1.24927,-4.59811 1.34602,-3.88149 3.57857,-8.46534 4.57455,-9.39247 0.48477,-0.45125 1.18216,-0.3479 1.79164,0.20746 z m -0.34289,0.13515 c 0.0492,0.041 0.13224,0.19543 0.23289,0.44895 0.59445,1.49732 0.64062,4.24366 0.13115,7.80873 -0.24024,1.68133 -0.35367,2.21074 -0.81483,3.80767 -0.66509,2.30295 -1.30776,3.71941 -2.09833,4.62489 -0.44606,0.51092 -0.54719,0.59229 -0.95918,0.77086 -0.25333,0.1098 -0.71141,0.21664 -1.01789,0.2375 -0.19828,0.0135 -0.37684,0.0146 -0.49222,0.007 l -0.14739,0.009 0.0235,-0.0296 c -0.0358,-0.0322 0.0665,-0.17777 0.26583,-0.37862 0.0955,-0.0962 0.18337,-0.19339 0.26794,-0.29662 0.0571,-0.0724 0.11048,-0.14243 0.16173,-0.21187 0.38001,-0.53802 0.72655,-1.31931 1.38925,-3.02423 0.39115,-1.00638 1.26491,-3.74593 1.62107,-5.08285 0.2837,-1.0649 0.62249,-2.76034 0.99456,-4.97714 0.37237,-2.21988 0.47953,-3.12031 0.41399,-3.48282 -0.006,-0.0348 -0.009,-0.0607 -0.0124,-0.0878 -0.0263,-0.0613 -0.0324,-0.12265 -0.0102,-0.14772 0.004,-0.003 0.009,-0.003 0.0148,0.002 0.008,-0.0101 0.0197,-0.01 0.0352,0.003 z m -0.58533,-0.26464 c 0.11368,0.10079 0.15179,0.43683 0.14991,1.32515 -0.003,1.28986 -0.14943,2.38741 -0.63234,4.73245 -1.12287,5.45268 -2.46246,9.41686 -3.74373,11.07872 -0.37534,0.48684 -0.42112,0.52424 -0.78806,0.64393 -0.20927,0.0683 -0.38865,0.11666 -0.40702,0.10995 -10e-6,1e-5 -9.79e-4,4.5e-4 -9.79e-4,4.5e-4 0,0 2.6e-4,-3.2e-4 2.6e-4,-3.2e-4 -2.91e-4,-1.6e-4 -10e-4,1e-4 -0.002,-1.8e-4 -0.0108,-0.01 0.14733,-0.17716 0.35152,-0.37232 0.50865,-0.48636 0.97459,-1.28584 1.59368,-2.73472 1.15775,-2.70958 1.43567,-3.64549 2.4735,-8.32711 0.85727,-3.86704 1.0119,-4.77972 0.98441,-5.81208 -0.01,-0.37287 -8.46e-4,-0.66259 0.0204,-0.64376 z m -1.30158,-0.1142 c 0.0333,0.0376 -0.10696,0.14851 -0.69811,0.59226 -0.99448,0.74644 -2.28868,2.16043 -3.03527,3.31636 -0.32045,0.49615 -0.70497,1.06721 -0.85446,1.26907 -0.1495,0.20185 -0.32089,0.49534 -0.38096,0.6522 -0.11011,0.2874 -0.32184,0.58508 -0.32918,0.46279 -0.002,-0.0361 0.0508,-0.16779 0.11775,-0.29241 l 0.12164,-0.22666 -0.18684,0.19911 c -0.12843,0.13686 -0.19827,0.31258 -0.22324,0.56205 -0.0341,0.34011 -0.78413,2.23351 -0.82756,2.08896 -0.011,-0.0366 -0.19168,0.044 -0.40151,0.17917 -1.3841001,0.89138 -4.7212001,2.7535 -6.1457001,3.42927 -2.26288,1.0735 -4.74156996,1.90455 -5.66998,1.90121 -0.26914,-9.8e-4 -0.57746,-0.0659 -0.75099,-0.15841 -0.39628,-0.21114 -0.39726,-0.21201 -0.34955,-0.26583 0.023,-0.0259 0.14073,-0.0235 0.26174,0.005 0.71656,0.17078 2.43176004,-0.2738 4.88834,-1.26719 2.43005,-0.98265 4.09371,-1.84278 7.0854501,-3.66323 l 1.11526,-0.67859 c 0.0466,-0.033 0.0804,-0.0585 0.0911,-0.0707 0.0113,-0.0128 0.0245,-0.0316 0.0387,-0.053 l 0.23443,-0.5472 c 0.12327,-0.28791 0.21793,-0.52859 0.23256,-0.58885 -0.0233,0.005 -0.10632,0.0385 -0.2446,0.0984 -0.64859,0.2978 -4.3335501,2.03342 -6.5666801,3.09423 -0.8186,0.38885 -2.07688,0.9832 -2.79617,1.32078 -0.71931,0.33757 -1.75174996,0.83576 -2.29424996,1.10714 -0.54251,0.2714 -1.24940004,0.6246 -1.57089004,0.78487 -0.22401,0.11166 -0.41483,0.188 -0.54196,0.21949 -0.0479,0.0145 -0.0845,0.0202 -0.11108,0.0157 -0.0169,-8.5e-4 -0.0311,-0.003 -0.0403,-0.009 -0.16616,-0.0985 -0.14004,-0.48342 0.0529,-0.78 0.0951,-0.14614 0.32247,-0.51621 0.50533,-0.82217 0.41374,-0.69224 1.15753004,-1.45451 1.86068004,-1.90701 0.93315,-0.60051 3.48640996,-1.82071 5.64386996,-2.69722 2.24322,-0.91136 3.76079,-1.41793 5.8382301,-1.94876 0.91705,-0.23432 1.26575,-0.35885 1.38501,-0.49464 0.29038,-0.33066 0.23861,-0.38492 -0.45842,-0.4801 -1.42889,-0.19506 -2.9474301,-0.12848 -4.6739501,0.20506 -1.03738,0.20042 -1.08015,0.20905 -1.08558,0.14442 -0.0244,-0.002 -0.0234,-0.0111 0.002,-0.026 0.0396,-0.0918 0.52009,-0.21044 1.63431,-0.40481 1.01781,-0.17754 2.0902101,-0.27897 2.9709101,-0.29819 0.0335,-0.001 0.064,-0.002 0.0947,-0.002 0.73469,-0.0112 1.32497,0.037 1.61565,0.15061 0.28906,0.11302 0.31254,0.0917 0.95159,-0.86587 0.79032,-1.1842 1.55862,-2.09739 2.18434,-2.59638 0.52863,-0.42159 1.06403,-0.70646 1.26295,-0.67195 0.0228,0.004 0.0399,0.009 0.0476,0.0173 z m 3.41144,3.3343 c 0.0308,0.0219 0.0593,0.12269 0.0667,0.24419 0.009,0.1389 0.0368,0.39675 0.0629,0.5731 0.0538,0.36356 0.0168,2.04106 -0.0465,2.123 -1.4e-4,1.8e-4 -1.9e-4,9.8e-4 -1.9e-4,9.8e-4 l -1.2e-4,-1e-4 c -4e-5,4e-5 -1.2e-4,3.7e-4 -1.5e-4,4e-4 -2.1e-4,2.4e-4 -3.97e-4,2e-5 -4.76e-4,1e-4 -0.0408,0.0447 -0.0605,-0.0264 -0.0509,-0.18545 -3e-5,-0.0117 0.002,-0.0167 0.003,-0.0269 -10e-4,-0.0176 -0.002,-0.0331 -0.003,-0.0522 -0.006,-0.17135 -0.0325,-0.84398 -0.0591,-1.49479 -0.0266,-0.65079 -0.0193,-1.1851 0.0162,-1.18722 0.004,-2.4e-4 0.008,0.002 0.0129,0.005 z m -4.58569,-1.86864 c 0.0263,0.0233 -0.0904,0.34165 -0.2593,0.70742 -1.81328,3.92691 -2.43837,5.44518 -3.30475,8.02775 -0.30425,0.90695 -0.62167,1.97589 -0.70544,2.37535 -0.0838,0.39944 -0.19691,0.89192 -0.25141,1.09444 -0.15245,0.56721 -0.30002,1.87674 -0.27729,2.45988 0.0127,0.32358 0.0869,0.64447 0.19393,0.83756 l 0.17344,0.3131 -0.0661,-0.0559 0.005,0.0101 -0.19989,-0.17456 c -0.005,-0.005 -0.0103,-0.01 -0.0155,-0.0151 l -3.18e-4,-2.9e-4 c -0.174184,-0.14909 -0.322884,-0.35644 -0.403454,-0.56197 -0.15878,-0.40495 -0.20065,-1.24312 -0.0975,-1.95145 0.0969,-0.66526 0.75723,-3.06326 1.09901,-3.99089 0.1393,-0.3781 0.34117,-0.97432 0.4486,-1.32494 0.53708,-1.75297 2.07066,-5.34388 2.92269,-6.84372 0.29292,-0.51561 0.66361,-0.97119 0.73717,-0.90596 z m 4.28204,8.4907 c 0.083,0.10347 -0.72132,3.62607 -0.86942,3.79311 -0.0985,0.11112 -0.065,-0.099 0.1367,-0.85311 0.12331,-0.46196 0.32761,-1.31235 0.45399,-1.88974 0.1264,-0.57739 0.24988,-1.05105 0.27458,-1.05252 0.002,-6.6e-4 0.004,5.5e-4 0.005,0.002 z m -8.46893,-5.28579 c 0.0136,0.0125 0.003,0.0252 -0.0411,0.0384 -0.0564,0.0168 -1.08757,0.34997 -2.2914401,0.73992 -5.1986,1.6839 -9.82940996,3.84347 -11.48803,5.35736 -0.6232,0.56883 -0.70635,0.68179 -0.91461,1.24226 -0.0291,0.0784 -0.0518,0.0423 -0.072,-0.11442 -0.11337,-0.88239 0.88118,-1.93812 2.76881004,-2.93928 1.23163996,-0.65324 4.10766996,-1.93087 6.45432996,-2.86707 1.1022,-0.43973 4.4834901,-1.44327 5.0378801,-1.49523 0.24335,-0.0228 0.50482,0.002 0.546,0.038 z m 7.28393,9.80291 c 0.0114,0.005 0.0133,0.0301 0.004,0.0784 -0.0654,0.32912 -0.68111,1.81442 -0.93756,2.26057 -0.22917,0.39867 -0.45062,0.70672 -0.68349,0.94407 -0.009,0.009 -0.0166,0.0204 -0.0249,0.0297 -0.0408,0.0461 -0.0945,0.0929 -0.157361,0.13975 -0.177739,0.14973 -0.364479,0.26358 -0.568159,0.34927 -0.615241,0.2588 -1.18898,0.37618 -1.53497,0.314 -0.253461,-0.0454 -0.45323,-0.14241 -0.4053,-0.19649 0.0101,-0.0114 0.18533,-0.0497 0.38964,-0.0852 0.44178,-0.0768 1.67959,-0.59816 1.98757,-0.83717 0.27573,-0.21397 0.9931,-1.31002 1.39678,-2.13404 0.2262,-0.46176 0.43125,-0.79755 0.5098,-0.85445 l 0.002,-0.004 -0.001,0.003 c 0.009,-0.007 0.0172,-0.01 0.0226,-0.007 z m -8.2993,-5.61236 -0.01,0.32715 c -0.005,0.17993 -0.11369,0.7678 -0.24105,1.30627 -0.33938,1.4352 -0.57027,3.17339 -0.54088,4.07371 0.0204,0.62613 0.0767,0.90463 0.27203,1.34657 0.13543,0.30647 0.28303,0.59001 0.32811,0.62998 0.0451,0.04 0.0579,0.0999 0.0284,0.13315 -0.0294,0.0332 -0.0872,0.008 -0.12814,-0.0555 -0.0409,-0.0638 -0.14808,-0.21322 -0.23785,-0.33198 -0.22514,-0.29812 -0.5274201,-0.97511 -0.5996601,-1.34314 -0.0684,-0.3487 0.0679,-1.64839 0.2963501,-2.82537 0.08,-0.41474 0.15864,-0.7814 0.18271,-0.86048 0.003,-0.0332 0.003,-0.0639 0.002,-0.0894 -0.0697,-0.0223 -0.4075701,0.18994 -1.3300101,0.81476 -1.7335,1.17418 -1.88411,1.26536 -3.21819,1.94452 -1.34065,0.6825 -2.62326,1.21776 -3.48768,1.45558 -1.36067996,0.37434 -1.99091996,0.38615 -2.80291996,0.0527 -0.330362,-0.1357 -0.53811204,-0.27654 -0.83464204,-0.56586 -0.15598,-0.1522 -0.2898,-0.29732 -0.35516,-0.38159 l -0.10584,-0.0925 0.10978,-0.003 c 0.0882,-0.0242 0.29081,-0.0434 0.52692,-0.0469 1.28616004,-0.0194 3.43749,-0.80877 7.14846,-2.62312 1.22592,-0.59937 3.86318,-2.09417 4.7060301,-2.66741 z m -5.1006601,-4.039 c 0.003,0.002 0.004,0.006 0.005,0.009 0.002,0.0295 -0.0755,0.0828 -0.17196,0.11828 -0.0964,0.0357 -0.17641,0.0407 -0.17818,0.0112 -0.002,-0.0296 0.0754,-0.0827 0.17177,-0.11827 0.0842,-0.0312 0.15639,-0.0389 0.17426,-0.0206 z m -0.82647,0.26649 c 0.008,0.009 -0.0248,0.028 -0.0908,0.0636 -0.076,0.041 -0.29535,0.11765 -0.48743,0.17029 -0.19208,0.0526 -0.48198,0.15454 -0.64424,0.22658 -0.16226,0.0721 -0.29669,0.10274 -0.29877,0.0682 -0.005,-0.0886 1.13463,-0.5351 1.37218,-0.53752 0.0939,-9.8e-4 0.14146,-5.8e-4 0.1491,0.009 z m -2.38955,0.94051 c 0.0531,0.0298 -0.38102,0.3267 -1.1933,0.8012 -0.63773996,0.37255 -1.54079996,0.95491 -2.00678996,1.29412 -1.03248004,0.7516 -2.20961004,1.81285 -2.14155004,1.93071 0.0252,0.0437 0.0286,0.1513 0.008,0.23936 -0.0459,0.19274 -0.10324,0.1606 -0.11679,-0.0656 -0.0149,-0.24671 0.26003,-0.78704 0.5894,-1.15852 0.60397,-0.68117 3.05066004,-2.27025 4.47717,-2.90795 0.23546,-0.10526 0.36014,-0.14689 0.38422,-0.13334 z m 5.88509,7.52536 c 0.006,0.002 0.008,0.007 0.009,0.0132 0.003,0.0444 -0.27388,0.22745 -1.39651,0.92481 -0.25875,0.16073 -0.80482,0.45174 -1.2135,0.64674 -0.40866,0.19498 -0.8139,0.3976 -0.90061,0.45032 -0.0867,0.0527 -0.15901,0.0733 -0.16069,0.0458 -0.003,-0.0451 0.61665,-0.4028 2.78082,-1.60614 0.3863,-0.2148 0.74416,-0.41717 0.79511,-0.44965 0.0383,-0.0244 0.0719,-0.0335 0.0871,-0.0256 z m -4.09345,2.18792 -0.0555,0.0303 c -9.79e-4,0.0176 -0.0374,0.048 -0.10811,0.0906 -0.24665,0.14921 -1.20676,0.52325 -1.73696,0.67661 -1.51161,0.43725 -2.17313996,0.3895 -3.11032996,-0.22427 -0.52232004,-0.34202 -0.64713004,-0.46244 -0.78502004,-0.75817 -0.15073,-0.3232 -0.17126,-0.32794 0.65514004,0.15064 1.04213,0.60347 1.39377,0.70386 2.20901996,0.63097 0.3926,-0.0351 1.16727,-0.1862 1.72164,-0.33589 0.66824,-0.18045 1.03145,-0.26035 1.12614,-0.2462 z m -7.26034,-5.27207 c 0.0408,0.0362 0.0352,0.16799 -0.0125,0.29291 -0.0476,0.12495 -0.10934,0.20704 -0.13705,0.18249 -0.0277,-0.0245 -0.0221,-0.15638 0.0125,-0.29291 0.0492,-0.19396 0.0791,-0.23383 0.13705,-0.18249 z"
       id="path3946" />
  </g>
</svg>
